<?xml version="1.0" encoding="utf-8"?>
<!-- Generator: Adobe Illustrator 16.0.0, SVG Export Plug-In . SVG Version: 6.00 Build 0)  -->
<!DOCTYPE svg PUBLIC "-//W3C//DTD SVG 1.1//EN" "http://www.w3.org/Graphics/SVG/1.1/DTD/svg11.dtd">
<svg version="1.1" id="Layer_1" xmlns="http://www.w3.org/2000/svg" xmlns:xlink="http://www.w3.org/1999/xlink" x="0px" y="0px"
	 width="64px" height="64px" viewBox="0 0 64 64" enable-background="new 0 0 64 64" xml:space="preserve">
<g>
	<defs>
		<rect id="SVGID_1_" width="64" height="64"/>
	</defs>
	<clipPath id="SVGID_2_">
		<use xlink:href="#SVGID_1_"  overflow="visible"/>
	</clipPath>
	<rect x="-0.5" y="-0.5" clip-path="url(#SVGID_2_)" fill="none" stroke="#F7F7F7" stroke-miterlimit="10" width="14" height="14"/>
	<rect x="13.5" y="-0.5" clip-path="url(#SVGID_2_)" fill="none" stroke="#F7F7F7" stroke-miterlimit="10" width="14" height="14"/>
	<rect x="27.5" y="-0.5" clip-path="url(#SVGID_2_)" fill="none" stroke="#F7F7F7" stroke-miterlimit="10" width="14" height="14"/>
	<rect x="41.5" y="-0.5" clip-path="url(#SVGID_2_)" fill="none" stroke="#F7F7F7" stroke-miterlimit="10" width="14" height="14"/>
	<rect x="55.5" y="-0.5" clip-path="url(#SVGID_2_)" fill="none" stroke="#F7F7F7" stroke-miterlimit="10" width="14" height="14"/>
	<rect x="-0.5" y="13.5" clip-path="url(#SVGID_2_)" fill="none" stroke="#F7F7F7" stroke-miterlimit="10" width="14" height="14"/>
	<rect x="13.5" y="13.5" clip-path="url(#SVGID_2_)" fill="none" stroke="#F7F7F7" stroke-miterlimit="10" width="14" height="14"/>
	<rect x="27.5" y="13.5" clip-path="url(#SVGID_2_)" fill="none" stroke="#F7F7F7" stroke-miterlimit="10" width="14" height="14"/>
	<rect x="41.5" y="13.5" clip-path="url(#SVGID_2_)" fill="none" stroke="#F7F7F7" stroke-miterlimit="10" width="14" height="14"/>
	<rect x="55.5" y="13.5" clip-path="url(#SVGID_2_)" fill="none" stroke="#F7F7F7" stroke-miterlimit="10" width="14" height="14"/>
	<rect x="-0.5" y="27.5" clip-path="url(#SVGID_2_)" fill="none" stroke="#F7F7F7" stroke-miterlimit="10" width="14" height="14"/>
	<rect x="13.5" y="27.5" clip-path="url(#SVGID_2_)" fill="none" stroke="#F7F7F7" stroke-miterlimit="10" width="14" height="14"/>
	<rect x="27.5" y="27.5" clip-path="url(#SVGID_2_)" fill="none" stroke="#F7F7F7" stroke-miterlimit="10" width="14" height="14"/>
	<rect x="41.5" y="27.5" clip-path="url(#SVGID_2_)" fill="none" stroke="#F7F7F7" stroke-miterlimit="10" width="14" height="14"/>
	<rect x="55.5" y="27.5" clip-path="url(#SVGID_2_)" fill="none" stroke="#F7F7F7" stroke-miterlimit="10" width="14" height="14"/>
	<rect x="-0.5" y="41.5" clip-path="url(#SVGID_2_)" fill="none" stroke="#F7F7F7" stroke-miterlimit="10" width="14" height="14"/>
	<rect x="13.5" y="41.5" clip-path="url(#SVGID_2_)" fill="none" stroke="#F7F7F7" stroke-miterlimit="10" width="14" height="14"/>
	<rect x="27.5" y="41.5" clip-path="url(#SVGID_2_)" fill="none" stroke="#F7F7F7" stroke-miterlimit="10" width="14" height="14"/>
	<rect x="41.5" y="41.5" clip-path="url(#SVGID_2_)" fill="none" stroke="#F7F7F7" stroke-miterlimit="10" width="14" height="14"/>
	<rect x="55.5" y="41.5" clip-path="url(#SVGID_2_)" fill="none" stroke="#F7F7F7" stroke-miterlimit="10" width="14" height="14"/>
	<rect x="-0.5" y="55.5" clip-path="url(#SVGID_2_)" fill="none" stroke="#F7F7F7" stroke-miterlimit="10" width="14" height="14"/>
	<rect x="13.5" y="55.5" clip-path="url(#SVGID_2_)" fill="none" stroke="#F7F7F7" stroke-miterlimit="10" width="14" height="14"/>
	<rect x="27.5" y="55.5" clip-path="url(#SVGID_2_)" fill="none" stroke="#F7F7F7" stroke-miterlimit="10" width="14" height="14"/>
	<rect x="41.5" y="55.5" clip-path="url(#SVGID_2_)" fill="none" stroke="#F7F7F7" stroke-miterlimit="10" width="14" height="14"/>
	<rect x="55.5" y="55.5" clip-path="url(#SVGID_2_)" fill="none" stroke="#F7F7F7" stroke-miterlimit="10" width="14" height="14"/>
	<polygon clip-path="url(#SVGID_2_)" fill="#D7D7D7" points="0,30.438 13.5,29.219 14.313,28.391 52.938,23.664 53.625,24.176 
		64,22.938 64,27 53.875,28.375 53.063,29.125 14.875,33.938 13.875,33.438 0,34.688 	"/>
	<polygon clip-path="url(#SVGID_2_)" fill="#D7D7D7" points="36.438,0 39,19.563 39,26 44.938,25.25 42.938,18.688 40.688,0 	"/>
	<polygon clip-path="url(#SVGID_2_)" fill="#D7D7D7" points="39.861,30.765 39.704,35.931 42.813,64 38.563,64 35.5,36.188 
		33.826,31.549 	"/>
	<polygon clip-path="url(#SVGID_2_)" fill="#D7D7D7" points="37,2.894 0,7 0,3.5 34.891,0 37,-1.563 	"/>
	<path clip-path="url(#SVGID_2_)" fill="#D7D7D7" d="M3.708,30.103c0-7.54-0.521-9.29-3.708-9.29s-1.688,12-1.688,12
		S3.708,35.268,3.708,30.103z"/>
	<path clip-path="url(#SVGID_2_)" fill="#D7D7D7" d="M42.41,60.621l14.652-1.496c0,0,1.313,0.188,2.438-0.75
		s0.875-1.875,0.875-1.875l-2.076-28.726l-3.417,0.464l1.993,27.574l-14.876,1.625L42.41,60.621z"/>
	<polygon clip-path="url(#SVGID_2_)" fill="#D7D7D7" points="64,51.5 60.04,51.863 59.25,54.875 64,54.438 	"/>
	<path clip-path="url(#SVGID_2_)" fill="#D7D7D7" d="M37.875,52.063c0,0-8.188,0.375-15.25,4.219C14.188,61,11.813,60.125,0,61.25
		S0,64,0,64s15.875-0.008,20.75-3.379s17.569-5.746,17.569-5.746L37.875,52.063z"/>
	<g clip-path="url(#SVGID_2_)">
		
			<text transform="matrix(0.9925 -0.1222 0.1222 0.9925 26.8965 30.8242)" fill="#BBBBBB" font-family="'SourceSansPro-Regular'" font-size="3.3839">Riccarton Rd</text>
	</g>
	<g clip-path="url(#SVGID_2_)">
		
			<text transform="matrix(0.112 0.9937 -0.9937 0.112 36.6035 37.1123)" fill="#BBBBBB" font-family="'SourceSansPro-Regular'" font-size="3.3839">Middleton Rd</text>
	</g>
	<g clip-path="url(#SVGID_2_)">
		
			<text transform="matrix(0.1224 0.9925 -0.9925 0.1224 37.9785 4.4263)" fill="#BBBBBB" font-family="'SourceSansPro-Regular'" font-size="3.3839">Ilam Rd</text>
	</g>
	<g clip-path="url(#SVGID_2_)">
		
			<text transform="matrix(0.0728 0.9973 -0.9973 0.0728 55.9063 32.5542)" fill="#BBBBBB" font-family="'SourceSansPro-Regular'" font-size="3.3839">Field Tce</text>
	</g>
</g>
</svg>
